<svg xmlns="http://www.w3.org/2000/svg" viewBox="0 0 12 8"><path d="M3.056 2.076 C 1.761 3.129,0.704 3.996,0.706 4.003 C 0.708 4.010,1.682 4.806,2.870 5.771 C 4.058 6.736,5.122 7.601,5.234 7.693 L 5.438 7.861 5.679 7.565 C 5.812 7.403,5.920 7.264,5.920 7.256 C 5.920 7.248,5.146 6.614,4.201 5.846 L 2.481 4.450 6.881 4.445 L 11.280 4.440 11.280 4.050 L 11.280 3.660 6.822 3.655 L 2.365 3.650 4.124 2.220 C 5.091 1.433,5.892 0.779,5.904 0.765 C 5.920 0.746,5.865 0.666,5.690 0.450 C 5.561 0.290,5.445 0.161,5.433 0.161 C 5.420 0.162,4.351 1.024,3.056 2.076 " stroke="none" fill-rule="evenodd"></path></svg>