<svg xmlns="http://www.w3.org/2000/svg" fill="none" viewBox="0 0 72 71"><path d="M32.460 0.359 C 23.710 0.851,16.089 2.665,10.165 5.664 C 5.145 8.206,2.021 11.299,1.080 14.661 C 0.836 15.531,0.834 15.733,0.839 35.264 L 0.845 54.989 1.208 55.860 C 2.807 59.701,6.736 63.332,12.060 65.889 C 19.072 69.256,28.059 70.842,39.000 70.643 C 44.645 70.540,48.059 70.114,52.630 68.942 C 55.370 68.239,57.365 67.508,59.820 66.307 C 62.888 64.805,64.917 63.403,67.000 61.346 C 68.909 59.460,70.215 57.534,70.884 55.620 L 71.220 54.660 71.220 35.040 L 71.220 15.420 70.939 14.524 C 70.441 12.939,69.748 11.738,68.566 10.414 C 63.871 5.152,53.809 1.407,41.880 0.482 C 39.595 0.304,34.591 0.239,32.460 0.359 M41.280 1.440 C 56.493 2.556,68.218 8.092,70.024 15.010 C 70.328 16.173,70.220 18.146,69.792 19.259 C 69.269 20.617,68.457 21.797,67.147 23.102 C 64.645 25.595,61.231 27.524,56.400 29.177 C 42.341 33.988,22.878 33.076,10.745 27.039 C 5.021 24.191,1.810 20.506,1.802 16.776 C 1.797 14.657,2.837 12.498,4.796 10.560 C 9.664 5.744,19.590 2.290,30.960 1.455 C 32.943 1.310,39.377 1.300,41.280 1.440 M2.414 21.655 C 7.882 29.849,26.484 34.798,44.340 32.810 C 49.494 32.236,54.531 31.046,58.620 29.436 C 63.928 27.345,67.924 24.503,69.778 21.499 C 70.029 21.093,70.252 20.760,70.274 20.760 C 70.295 20.760,70.313 28.273,70.314 37.456 C 70.315 49.025,70.275 54.323,70.185 54.706 C 70.114 55.011,69.795 55.804,69.476 56.468 C 66.948 61.743,60.253 66.162,51.583 68.279 C 44.096 70.108,33.771 70.289,24.609 68.753 C 13.324 66.861,4.843 61.897,2.079 55.567 L 1.683 54.660 1.681 50.385 L 1.680 46.109 2.040 45.960 C 2.238 45.878,2.400 45.768,2.400 45.715 C 2.400 45.435,2.222 45.240,1.967 45.240 L 1.680 45.240 1.680 41.703 L 1.680 38.166 2.050 37.975 C 2.295 37.848,2.396 37.723,2.350 37.602 C 2.311 37.502,2.280 37.370,2.280 37.308 C 2.280 37.246,2.145 37.229,1.980 37.271 L 1.680 37.346 1.680 32.227 L 1.680 27.108 2.040 26.982 C 2.425 26.848,2.433 26.834,2.329 26.448 C 2.278 26.258,2.191 26.210,1.971 26.252 L 1.680 26.308 1.680 23.454 C 1.680 21.884,1.702 20.622,1.728 20.650 C 1.754 20.677,2.063 21.130,2.414 21.655 M68.737 28.980 L 68.413 29.513 68.755 29.757 C 68.943 29.890,69.127 30.000,69.163 30.000 C 69.237 30.000,69.840 29.004,69.840 28.883 C 69.840 28.816,69.192 28.434,69.096 28.444 C 69.076 28.446,68.915 28.687,68.737 28.980 M3.496 29.765 L 3.212 30.001 3.654 30.541 C 3.897 30.837,4.137 31.080,4.187 31.080 C 4.237 31.080,4.402 30.949,4.553 30.788 L 4.827 30.496 4.423 30.010 C 3.964 29.457,3.889 29.437,3.496 29.765 M66.058 32.162 L 65.588 32.643 65.915 32.969 L 66.241 33.296 66.723 32.813 L 67.206 32.331 66.867 32.006 L 66.528 31.681 66.058 32.162 M6.758 33.077 C 6.551 33.392,6.553 33.395,7.025 33.795 C 7.601 34.282,7.712 34.292,7.984 33.877 L 8.195 33.555 7.728 33.159 C 7.160 32.679,7.026 32.668,6.758 33.077 M62.730 34.763 C 62.225 35.110,62.194 35.222,62.495 35.613 L 62.705 35.885 63.279 35.521 L 63.854 35.157 63.599 34.798 C 63.458 34.601,63.307 34.443,63.262 34.447 C 63.217 34.451,62.977 34.593,62.730 34.763 M10.637 35.556 C 10.430 35.916,10.430 35.936,10.641 36.095 C 10.762 36.185,11.054 36.359,11.291 36.482 L 11.722 36.706 11.926 36.278 C 12.039 36.043,12.114 35.836,12.095 35.820 C 12.076 35.803,11.788 35.652,11.456 35.486 L 10.852 35.182 10.637 35.556 M58.950 36.844 C 58.669 36.968,58.440 37.102,58.440 37.141 C 58.440 37.261,58.802 37.920,58.868 37.920 C 58.933 37.920,59.907 37.440,59.986 37.369 C 60.079 37.286,59.727 36.600,59.595 36.608 C 59.521 36.613,59.230 36.719,58.950 36.844 M14.788 37.582 C 14.709 37.792,14.657 37.974,14.672 37.986 C 14.687 37.998,15.005 38.120,15.378 38.258 L 16.057 38.508 16.128 38.225 C 16.167 38.070,16.230 37.863,16.267 37.765 C 16.316 37.637,16.177 37.534,15.766 37.394 C 15.000 37.133,14.955 37.142,14.788 37.582 M55.080 38.366 C 54.783 38.469,54.521 38.569,54.498 38.588 C 54.475 38.608,54.519 38.813,54.595 39.044 L 54.734 39.465 55.237 39.290 C 55.514 39.194,55.803 39.093,55.881 39.065 C 55.987 39.027,55.989 38.908,55.891 38.587 C 55.819 38.352,55.728 38.164,55.690 38.169 C 55.651 38.175,55.377 38.263,55.080 38.366 M19.205 38.977 C 19.140 39.213,19.099 39.418,19.113 39.432 C 19.128 39.446,19.446 39.537,19.819 39.635 L 20.498 39.811 20.614 39.357 L 20.729 38.902 20.026 38.725 L 19.324 38.548 19.205 38.977 M50.865 39.504 L 50.310 39.621 50.404 40.040 C 50.456 40.270,50.517 40.476,50.540 40.496 C 50.562 40.517,50.865 40.475,51.214 40.402 C 51.839 40.273,51.847 40.266,51.770 39.905 C 51.678 39.477,51.617 39.355,51.503 39.374 C 51.457 39.382,51.170 39.441,50.865 39.504 M68.891 39.750 C 68.799 39.898,68.649 40.135,68.557 40.275 C 68.405 40.511,68.423 40.551,68.783 40.779 L 69.174 41.027 69.531 40.478 L 69.888 39.929 69.611 39.705 C 69.249 39.412,69.094 39.421,68.891 39.750 M23.716 39.971 C 23.672 40.188,23.678 40.403,23.729 40.450 C 23.779 40.497,24.098 40.572,24.438 40.617 L 25.057 40.699 25.141 40.315 C 25.230 39.912,25.093 39.725,24.705 39.722 C 24.598 39.721,24.349 39.688,24.152 39.648 C 23.824 39.583,23.788 39.609,23.716 39.971 M46.401 40.284 C 46.158 40.322,46.081 40.390,46.131 40.519 C 46.169 40.618,46.200 40.829,46.200 40.987 C 46.200 41.244,46.241 41.267,46.590 41.209 C 47.550 41.049,47.537 41.057,47.497 40.646 C 47.465 40.309,47.414 40.258,47.100 40.245 C 46.902 40.237,46.587 40.255,46.401 40.284 M28.288 40.710 C 28.255 40.925,28.247 41.121,28.270 41.146 C 28.293 41.171,28.624 41.198,29.006 41.206 C 29.686 41.220,29.701 41.213,29.740 40.873 C 29.789 40.440,29.614 40.324,28.904 40.322 C 28.368 40.320,28.345 40.334,28.288 40.710 M3.548 40.723 L 3.195 41.005 3.650 41.560 C 4.123 42.137,4.296 42.163,4.671 41.711 C 4.798 41.558,4.749 41.438,4.377 40.984 C 4.132 40.685,3.924 40.440,3.916 40.441 C 3.907 40.441,3.741 40.568,3.548 40.723 M32.880 41.086 C 32.880 41.537,33.056 41.635,33.870 41.638 C 34.315 41.640,34.320 41.635,34.320 41.160 L 34.320 40.680 33.600 40.680 L 32.880 40.680 32.880 41.086 M41.880 41.160 C 41.880 41.686,41.914 41.701,42.750 41.563 C 43.166 41.494,43.200 41.458,43.200 41.084 L 43.200 40.680 42.540 40.680 L 41.880 40.680 41.880 41.160 M37.560 41.280 L 37.560 41.760 38.220 41.760 L 38.880 41.760 38.880 41.280 L 38.880 40.800 38.220 40.800 L 37.560 40.800 37.560 41.280 M66.076 43.184 L 65.623 43.647 65.904 43.974 L 66.186 44.301 66.702 43.840 L 67.219 43.380 66.874 43.050 L 66.528 42.721 66.076 43.184 M6.750 44.036 L 6.479 44.379 7.081 44.821 L 7.683 45.263 7.918 44.981 C 8.047 44.827,8.152 44.646,8.151 44.580 C 8.151 44.478,7.156 43.667,7.055 43.687 C 7.036 43.690,6.898 43.848,6.750 44.036 M62.751 45.767 L 62.203 46.140 62.432 46.530 C 62.658 46.914,62.668 46.917,62.989 46.727 C 63.169 46.621,63.429 46.446,63.568 46.337 L 63.821 46.140 63.560 45.767 L 63.299 45.393 62.751 45.767 M10.646 46.549 C 10.533 46.740,10.440 46.928,10.440 46.966 C 10.440 47.033,11.569 47.640,11.693 47.640 C 11.768 47.640,12.153 46.909,12.099 46.870 C 11.969 46.778,10.930 46.200,10.895 46.200 C 10.871 46.200,10.759 46.357,10.646 46.549 M68.771 47.962 L 68.415 48.533 68.738 48.746 C 68.915 48.863,69.093 48.959,69.134 48.959 C 69.224 48.960,69.840 48.044,69.840 47.908 C 69.840 47.855,69.679 47.717,69.483 47.601 L 69.126 47.390 68.771 47.962 M59.006 47.830 C 58.690 47.994,58.459 48.173,58.492 48.227 C 58.525 48.281,58.608 48.470,58.675 48.646 L 58.796 48.966 59.398 48.661 C 59.729 48.493,60.000 48.327,60.000 48.292 C 60.000 48.212,59.644 47.518,59.607 47.526 C 59.592 47.529,59.322 47.666,59.006 47.830 M14.949 48.225 C 14.915 48.280,14.833 48.468,14.767 48.642 C 14.655 48.936,14.678 48.973,15.086 49.143 C 15.944 49.502,16.037 49.495,16.186 49.070 C 16.260 48.856,16.300 48.660,16.274 48.634 C 16.129 48.489,15.001 48.141,14.949 48.225 M3.555 48.730 L 3.237 48.979 3.475 49.300 C 3.606 49.476,3.809 49.739,3.927 49.883 L 4.140 50.147 4.481 49.850 L 4.822 49.552 4.421 49.020 C 4.200 48.727,3.987 48.486,3.946 48.484 C 3.906 48.482,3.730 48.592,3.555 48.730 M54.980 49.403 C 54.506 49.570,54.467 49.614,54.539 49.903 C 54.661 50.399,54.775 50.441,55.416 50.228 L 56.014 50.029 55.887 49.615 C 55.745 49.152,55.712 49.144,54.980 49.403 M19.212 49.938 C 19.137 50.151,19.118 50.361,19.168 50.405 C 19.307 50.526,20.398 50.802,20.467 50.733 C 20.500 50.700,20.576 50.504,20.635 50.298 C 20.739 49.933,20.730 49.921,20.241 49.795 C 19.965 49.724,19.651 49.640,19.543 49.609 C 19.405 49.569,19.306 49.667,19.212 49.938 M50.750 50.559 C 50.337 50.694,50.324 50.717,50.423 51.090 C 50.537 51.518,50.669 51.554,51.391 51.353 C 51.801 51.239,51.835 51.199,51.764 50.904 C 51.627 50.330,51.540 50.301,50.750 50.559 M23.715 50.989 C 23.678 51.219,23.663 51.423,23.683 51.443 C 23.735 51.495,24.994 51.727,25.029 51.691 C 25.045 51.674,25.094 51.468,25.138 51.234 L 25.218 50.809 24.500 50.690 L 23.783 50.571 23.715 50.989 M66.071 51.161 L 65.601 51.558 65.885 51.940 L 66.168 52.323 66.682 51.818 L 67.197 51.313 66.938 51.036 C 66.795 50.884,66.647 50.761,66.609 50.762 C 66.571 50.763,66.329 50.942,66.071 51.161 M46.758 51.253 C 46.438 51.303,46.161 51.361,46.142 51.382 C 46.124 51.403,46.135 51.595,46.168 51.810 C 46.232 52.230,46.381 52.278,47.145 52.125 C 47.475 52.059,47.520 52.002,47.520 51.652 C 47.520 51.433,47.480 51.234,47.430 51.208 C 47.380 51.183,47.078 51.203,46.758 51.253 M28.281 51.674 C 28.240 51.923,28.219 52.139,28.234 52.154 C 28.249 52.169,28.585 52.199,28.981 52.221 L 29.700 52.260 29.737 51.810 C 29.774 51.362,29.772 51.360,29.317 51.358 C 29.066 51.357,28.746 51.326,28.607 51.289 C 28.391 51.231,28.344 51.286,28.281 51.674 M32.880 52.067 L 32.880 52.560 33.410 52.560 C 33.702 52.560,34.026 52.593,34.130 52.633 C 34.284 52.692,34.320 52.613,34.320 52.213 L 34.320 51.720 33.790 51.720 C 33.498 51.720,33.174 51.687,33.070 51.647 C 32.916 51.588,32.880 51.667,32.880 52.067 M42.270 51.687 C 41.915 51.731,41.880 51.772,41.880 52.148 L 41.880 52.560 42.573 52.560 L 43.266 52.560 43.221 52.080 C 43.171 51.564,43.191 51.572,42.270 51.687 M6.752 52.062 L 6.500 52.404 7.083 52.839 L 7.667 53.275 7.913 52.961 C 8.049 52.789,8.160 52.612,8.160 52.569 C 8.160 52.480,7.195 51.720,7.081 51.720 C 7.039 51.720,6.891 51.874,6.752 52.062 M37.560 52.260 L 37.560 52.680 38.220 52.680 L 38.880 52.680 38.880 52.260 L 38.880 51.840 38.220 51.840 L 37.560 51.840 37.560 52.260 M62.791 53.732 C 62.220 54.099,62.183 54.214,62.503 54.609 L 62.726 54.884 63.274 54.537 C 63.841 54.178,63.851 54.126,63.459 53.612 C 63.311 53.418,63.266 53.426,62.791 53.732 M10.614 54.611 C 10.509 54.815,10.440 54.998,10.461 55.017 C 10.483 55.036,10.775 55.189,11.111 55.358 L 11.723 55.665 11.919 55.253 L 12.115 54.842 11.522 54.541 C 11.195 54.375,10.901 54.240,10.867 54.240 C 10.834 54.240,10.720 54.407,10.614 54.611 M58.980 55.820 C 58.716 55.958,58.483 56.085,58.461 56.104 C 58.440 56.122,58.510 56.307,58.617 56.515 C 58.826 56.919,58.956 56.925,59.670 56.562 C 60.056 56.365,60.054 56.373,59.817 55.914 C 59.602 55.498,59.600 55.498,58.980 55.820 M14.795 56.569 L 14.669 56.978 15.325 57.229 C 15.686 57.367,15.998 57.480,16.019 57.480 C 16.100 57.480,16.314 56.727,16.258 56.637 C 16.204 56.550,15.176 56.160,14.999 56.160 C 14.956 56.160,14.864 56.344,14.795 56.569 M54.960 57.412 C 54.596 57.546,54.545 57.613,54.578 57.913 C 54.634 58.420,54.723 58.455,55.397 58.240 L 56.007 58.045 55.883 57.642 C 55.748 57.203,55.619 57.170,54.960 57.412 M19.211 57.979 C 19.138 58.188,19.101 58.381,19.127 58.407 C 19.154 58.434,19.462 58.531,19.813 58.623 C 20.489 58.802,20.634 58.743,20.638 58.290 C 20.639 58.175,20.654 58.045,20.670 58.003 C 20.700 57.927,19.747 57.605,19.482 57.602 C 19.406 57.601,19.284 57.771,19.211 57.979 M50.970 58.484 C 50.466 58.587,50.400 58.636,50.402 58.910 C 50.405 59.469,50.528 59.541,51.226 59.392 C 51.849 59.258,51.853 59.254,51.774 58.879 C 51.667 58.370,51.628 58.351,50.970 58.484 M23.706 58.989 C 23.661 59.228,23.642 59.439,23.662 59.458 C 23.683 59.476,24.006 59.542,24.379 59.605 L 25.058 59.720 25.129 59.365 C 25.237 58.827,25.236 58.827,24.690 58.742 C 24.409 58.698,24.092 58.638,23.984 58.608 C 23.838 58.567,23.767 58.663,23.706 58.989 M46.599 59.246 L 46.097 59.293 46.166 59.736 C 46.203 59.980,46.243 60.192,46.254 60.207 C 46.265 60.222,46.557 60.201,46.903 60.160 L 47.532 60.085 47.496 59.654 C 47.457 59.187,47.420 59.170,46.599 59.246 M28.286 59.670 C 28.253 59.885,28.260 60.096,28.303 60.141 C 28.345 60.186,28.677 60.237,29.040 60.256 L 29.700 60.290 29.736 59.862 C 29.772 59.437,29.769 59.434,29.209 59.357 C 28.370 59.242,28.352 59.248,28.286 59.670 M32.880 60.120 L 32.880 60.600 33.600 60.600 L 34.320 60.600 34.320 60.195 C 34.320 59.837,34.276 59.781,33.945 59.715 C 33.739 59.674,33.415 59.640,33.225 59.640 C 32.902 59.640,32.880 59.671,32.880 60.120 M41.960 59.720 C 41.916 59.764,41.880 59.980,41.880 60.200 L 41.880 60.600 42.540 60.600 L 43.200 60.600 43.200 60.120 L 43.200 59.640 42.620 59.640 C 42.301 59.640,42.004 59.676,41.960 59.720 M37.560 60.240 L 37.560 60.720 38.220 60.720 L 38.880 60.720 38.880 60.240 L 38.880 59.760 38.220 59.760 L 37.560 59.760 37.560 60.240 " fill="#6D6A5F" stroke="none" fill-rule="evenodd"></path></svg>