<svg fill="none" xmlns="http://www.w3.org/2000/svg" viewBox="0 0 16 16"><path d="M7.4.523c-.073.006-.301.036-.507.066a7.407 7.407 0 0 0-4.302 2.224C1.493 3.956.822 5.331.568 6.96.5 7.398.5 8.602.568 9.04c.212 1.357.688 2.48 1.509 3.56.255.336.95 1.036 1.283 1.293a7.598 7.598 0 0 0 3.916 1.573 9.997 9.997 0 0 0 1.448 0 7.608 7.608 0 0 0 3.916-1.573 10.021 10.021 0 0 0 1.253-1.253 7.608 7.608 0 0 0 1.573-3.916 9.997 9.997 0 0 0 0-1.448A7.529 7.529 0 0 0 10.657.988a7.631 7.631 0 0 0-1.55-.403C8.769.532 7.748.495 7.4.523m2.01 5.356c1.278 1.158 2.321 2.116 2.317 2.127-.009.028-4.8 4.37-4.811 4.359a35.422 35.422 0 0 1-.781-.977c.001-.008.841-.771 1.865-1.695A164.162 164.162 0 0 0 9.863 8c0-.007-.839-.769-1.863-1.693S6.14 4.616 6.143 4.603c.003-.013.179-.237.39-.498l.384-.474.085.071c.047.039 1.13 1.019 2.408 2.177" fill-rule="evenodd" fill="#000"/></svg>