<svg fill="none" xmlns="http://www.w3.org/2000/svg" viewBox="0 0 20 20"><path d="M11.974 0.033 C 10.376 0.259,9.079 1.333,8.586 2.840 C 8.524 3.029,8.462 3.255,8.449 3.342 L 8.426 3.500 4.213 3.500 L 0.000 3.500 0.000 4.133 L 0.000 4.767 4.208 4.767 L 8.417 4.767 8.495 5.092 C 8.941 6.947,10.586 8.239,12.500 8.239 C 14.411 8.239,16.064 6.941,16.506 5.092 L 16.583 4.767 18.292 4.767 L 20.000 4.767 20.000 4.133 L 20.000 3.500 18.287 3.500 L 16.574 3.500 16.551 3.342 C 16.538 3.255,16.476 3.029,16.414 2.840 C 16.069 1.787,15.335 0.938,14.350 0.451 C 13.938 0.248,13.775 0.189,13.367 0.097 C 13.039 0.023,12.291 -0.012,11.974 0.033 M13.212 1.348 C 14.241 1.609,14.995 2.370,15.294 3.450 C 15.382 3.765,15.370 4.539,15.274 4.876 C 15.002 5.827,14.295 6.562,13.367 6.860 C 12.782 7.048,12.218 7.048,11.633 6.860 C 10.705 6.562,9.998 5.828,9.727 4.881 C 9.630 4.538,9.618 3.767,9.706 3.450 C 9.946 2.583,10.434 1.967,11.194 1.572 C 11.786 1.264,12.547 1.179,13.212 1.348 M6.753 11.820 C 5.414 12.062,4.244 12.999,3.701 14.267 C 3.642 14.404,3.551 14.682,3.500 14.883 L 3.406 15.250 1.703 15.259 L -0.000 15.267 -0.000 15.884 L 0.000 16.500 1.713 16.500 L 3.426 16.500 3.449 16.658 C 3.462 16.745,3.524 16.971,3.586 17.160 C 4.069 18.634,5.352 19.719,6.889 19.950 C 8.870 20.249,10.790 19.065,11.414 17.160 C 11.476 16.971,11.538 16.745,11.551 16.658 L 11.574 16.500 15.787 16.500 L 20.000 16.500 20.000 15.883 L 20.000 15.267 15.797 15.258 L 11.594 15.250 11.500 14.883 C 11.448 14.682,11.357 14.404,11.299 14.267 C 10.757 12.993,9.577 12.055,8.220 11.818 C 7.853 11.754,7.113 11.755,6.753 11.820 M8.277 13.115 C 9.260 13.401,9.991 14.136,10.274 15.124 C 10.370 15.461,10.382 16.235,10.294 16.550 C 10.110 17.214,9.787 17.721,9.304 18.107 C 8.234 18.961,6.766 18.961,5.696 18.107 C 5.213 17.721,4.890 17.214,4.706 16.550 C 4.618 16.233,4.630 15.462,4.727 15.119 C 5.042 14.019,5.951 13.211,7.077 13.031 C 7.387 12.982,7.953 13.022,8.277 13.115 " fill="#6D6A5F" stroke="none" fill-rule="evenodd"></path></svg>