<svg viewBox="0 0 20 20" xmlns="http://www.w3.org/2000/svg"><path d="m11.974.033c-1.598.226-2.895 1.3-3.388 2.807-.062.189-.124.415-.137.502l-.023.158h-4.213-4.213v.633.634h4.208 4.209l.078.325c.446 1.855 2.091 3.147 4.005 3.147 1.911 0 3.564-1.298 4.006-3.147l.077-.325h1.709 1.708v-.634-.633h-1.713-1.713l-.023-.158c-.013-.087-.075-.313-.137-.502-.345-1.053-1.079-1.902-2.064-2.389-.412-.203-.575-.262-.983-.354-.328-.074-1.076-.109-1.393-.064m1.238 1.315c1.029.261 1.783 1.022 2.082 2.102.088.315.076 1.089-.02 1.426-.272.951-.979 1.686-1.907 1.984-.585.188-1.149.188-1.734 0-.928-.298-1.635-1.032-1.906-1.979-.097-.343-.109-1.114-.021-1.431.24-.867.728-1.483 1.488-1.878.592-.308 1.353-.393 2.018-.224m-6.459 10.472c-1.339.242-2.509 1.179-3.052 2.447-.059.137-.15.415-.201.616l-.094.367-1.703.009-1.703.008v.617.616h1.713 1.713l.023.158c.013.087.075.313.137.502.483 1.474 1.766 2.559 3.303 2.79 1.981.299 3.901-.885 4.525-2.79.062-.189.124-.415.137-.502l.023-.158h4.213 4.213v-.617-.616l-4.203-.009-4.203-.008-.094-.367c-.052-.201-.143-.479-.201-.616-.542-1.274-1.722-2.212-3.079-2.449-.367-.064-1.107-.063-1.467.002m1.524 1.295c.983.286 1.714 1.021 1.997 2.009.096.337.108 1.111.02 1.426-.184.664-.507 1.171-.99 1.557-1.07.854-2.538.854-3.608 0-.483-.386-.806-.893-.99-1.557-.088-.317-.076-1.088.021-1.431.315-1.1 1.224-1.908 2.35-2.088.31-.049.876-.009 1.2.084" fill-rule="evenodd"/></svg>