<svg xmlns="http://www.w3.org/2000/svg" viewBox="0 0 13 14"><path d="M9.017 1.009a.245.245 0 0 0-.04-.025.976.976 0 0 0-.241-.086A6.441 6.441 0 0 0 6.499.5a6.457 6.457 0 0 0-1.316.13.682.682 0 0 0-.144.033 6.524 6.524 0 0 0-4.226 3.19A6.452 6.452 0 0 0 0 6.996a6.515 6.515 0 0 0 1.906 4.598A6.506 6.506 0 0 0 6.5 13.5a6.506 6.506 0 0 0 4.594-1.907A6.515 6.515 0 0 0 13 6.995 6.517 6.517 0 0 0 9.017 1.01ZM.805 7.005c0-.67.117-1.333.348-1.96a.96.96 0 0 0 .567.02.563.563 0 0 1 .095-.017c.464-.031.473.039.48.099.013.086.023.178.032.276.064.636.159 1.597 1.087 1.838.289.059.588.036.866-.064.115-.037.235-.06.356-.07.152 0 .284.088.52.306.235.217.528.494.977.551.066.009.133.012.2.012.128-.002.256-.012.383-.029.056 0 .109-.013.16-.017.023.042.05.089.08.138.056.088.104.18.145.276-.021.013-.045.029-.064.039a1.982 1.982 0 0 0-.15.099.923.923 0 0 0-.404.684c-.022.316.13.631.466.964.27.268.279.442.2 1.018-.061.44-.17.89-.276 1.325l-.048.197a5.692 5.692 0 0 1-6.02-5.685Zm8.32 5.042c.168-.257.32-.525.455-.802.13-.252.296-.36.557-.52.106-.065.215-.13.327-.214.405-.292.704-.743.91-1.378.144-.439.22-1.499-.497-1.797-.413-.171-.892.038-1.275.205-.105.05-.213.093-.323.13-.167.044-.234 0-.462-.154a3.626 3.626 0 0 0-.281-.18 1.8 1.8 0 0 0-.836-.241 1.542 1.542 0 0 0-.26.013.55.55 0 0 0-.27-.104.892.892 0 0 1-.143-.08l.032-.018c.363-.21.481-.485.354-.82-.14-.365-.496-.431-.667-.464a.54.54 0 0 1-.1-.022l-.04-.017a.408.408 0 0 1 .196-.187c.202-.09.235-.089.542.286l.09.11c.148.179.674.756 1.2.66a.684.684 0 0 0 .528-.494 1.074 1.074 0 0 0 0-.597.705.705 0 0 1-.024-.177.78.78 0 0 1 .28-.33c.094-.079.194-.154.294-.228.318-.237.675-.505.91-.911.077-.13.139-.27.182-.415a5.665 5.665 0 0 1 1.376 3.704 5.7 5.7 0 0 1-3.053 5.042h-.002Z"/></svg>