<svg xmlns="http://www.w3.org/2000/svg" viewBox="0 0 78 73"><path d="M36.205.978c-3.739.484-7.591 1.958-10.725 4.104-1.693 1.159-2.66 1.991-4.294 3.693-3.909 4.071-6.29 9.365-6.825 15.171l-.08.87-.717.404c-1.617.913-3.782 2.612-5.33 4.182-1.846 1.873-1.909 1.948-3.148 3.786C2.647 36.803 1.19 41.154.895 45.695c-.237 3.653.263 6.967 1.614 10.683 1.639 4.513 5.578 9.418 9.667 12.039 3.734 2.393 6.943 3.539 11.538 4.122 4.482.567 10.324-.597 14.493-2.89l.963-.529 1.117.597c1.449.773 3.903 1.73 5.444 2.12.67.17 2.077.434 3.126.587 6.35.922 13.286-.893 18.585-4.864 2.437-1.825 5.26-5.02 6.702-7.583 1.677-2.983 2.662-5.86 3.152-9.212.59-4.029.037-8.847-1.449-12.637-1.952-4.977-5.315-9.138-9.821-12.153l-.989-.661-.079-1.315c-.211-3.485-1.587-7.774-3.489-10.874-1.18-1.922-1.856-2.814-3.352-4.42C54.225 4.527 48.651 1.676 43.01.978c-1.896-.235-4.993-.235-6.805 0M44.07 2.07c1.949.395 3.042.709 4.549 1.31 4.846 1.93 8.746 5.137 11.667 9.592 1.348 2.055 2.733 5.382 3.286 7.889.211.96.518 3.406.518 4.132 0 .349.061.747.135.886.092.173.092.251 0 .251-.077 0-.135.309-.135.715v.715h.455c.445 0 .455-.012.455-.523v-.524l.404.209c1.35.698 4.331 3.38 5.78 5.2 2.292 2.879 3.878 6.105 4.79 9.743.534 2.133.768 6.536.463 8.71-.628 4.474-2.454 8.772-5.163 12.155-.973 1.215-2.9 3.093-4.197 4.089-3.667 2.816-7.612 4.408-12.282 4.957-1.713.201-4.067.194-5.525-.017-1.651-.239-2.433-.395-3.64-.729-1.784-.493-2.428-.747-4.627-1.825l-1.833-.899-1.846.921c-2.866 1.431-5.314 2.167-8.464 2.543-1.735.208-4.199.21-5.46.006-.179-.029-.617-.09-.975-.136-1.013-.13-3.661-.83-4.81-1.272-6.215-2.39-11.209-7.15-13.813-13.163-1.418-3.275-1.998-6.088-2.012-9.75-.015-3.963.822-7.502 2.596-10.969 1.229-2.402 2.342-3.98 4.34-6.147 1.163-1.262 3.423-2.999 5.23-4.019 1.203-.679 1.249-.722 1.252-1.16.002-.25.093-1.128.201-1.95 1.396-10.584 9.399-19.014 19.86-20.921 2.125-.387 2.015-.379 4.836-.335 2.01.031 2.91.103 3.965.316M25.74 22.295v.455h1.43v-.91h-1.43v.455m26 0v.455h.635c.548 0 .645-.04.713-.293.154-.575.112-.617-.633-.617h-.715v.455m-29.445-.13c-.072.024-.347.08-.613.124-.463.078-.48.099-.404.499.044.229.092.433.107.452.015.02.328-.029.696-.108.676-.145.729-.211.587-.739-.077-.29-.119-.315-.373-.228m25.74.021c-.143.03-.392.082-.552.117-.294.062-.374.346-.214.76.052.137.183.184.39.141 1.028-.211.979-.18.936-.611-.042-.429-.134-.496-.56-.407m-17.745.279c0 .145-.032.346-.07.447-.052.135.114.216.638.311l.709.129.078-.391c.098-.49.023-.559-.737-.67-.564-.083-.618-.068-.618.174m25.963-.155c-.051.051-.093.251-.093.444 0 .318.062.364.644.479.523.103.657.092.715-.059.102-.266.088-.659-.027-.726-.205-.122-1.15-.227-1.239-.138m-38.702 1.075c-.63.234-.761.465-.48.849.172.236.197.236.786.011.519-.198.596-.273.525-.506-.171-.562-.218-.582-.831-.354m25.912-.005c-.706.281-.731.314-.543.726.167.367.293.375 1.093.071.293-.112.331-.183.256-.486-.128-.519-.207-.549-.806-.311m-8.865.415c-.126.36-.109.407.182.52 1.062.415.969.418 1.161-.038l.177-.422-.542-.22c-.745-.303-.821-.291-.978.16m25.934-.102c-.134.501-.096.571.406.735.268.087.553.187.633.221.08.034.176-.043.213-.171.036-.128.105-.326.152-.44.066-.158-.05-.26-.477-.423-.734-.28-.833-.272-.927.078M39.48 25.235c-.13.075-.311.108-.402.073-.147-.056-.693.651-.578.749.025.021.293.192.595.381l.551.343.332-.503c.291-.439.313-.545.177-.845-.169-.37-.309-.411-.675-.198m-25.18 2v.715h.91v-1.43h-.91v.715m21.27.782c-.495.437-.501.452-.289.774.118.181.258.328.309.327.052-.001.322-.194.599-.428l.504-.427-.309-.346-.309-.347-.505.447m6.765.27-.239.329.499.438.5.437.325-.324.325-.324-.52-.445c-.286-.244-.549-.443-.585-.442-.036.001-.173.15-.305.331m21.316 2.778c-.044.276-.114.59-.155.696-.098.256.707.457.856.215.105-.169.294-1.18.23-1.23-.02-.016-.22-.063-.444-.106-.39-.074-.41-.056-.487.425m-31.293.28-.423.535.315.242c.173.133.349.244.391.245.041.002.258-.224.48-.501l.405-.504-.294-.276c-.161-.152-.329-.276-.372-.276-.043 0-.269.241-.502.535m-17.39-.289c-.125.08-.152.257-.091.618.122.718.203.8.668.676l.401-.106-.134-.652c-.108-.529-.184-.652-.4-.65a.993.993 0 0 0-.444.114m30.564.361c-.377.264-.363.403.096.94.371.433.385.437.71.224.183-.119.332-.264.332-.322 0-.058-.19-.318-.422-.577-.404-.449-.436-.461-.716-.265m-15.685 3.685-.347.636.407.211c.224.115.424.191.444.168.101-.115.602-1.176.566-1.199l-.383-.24-.341-.212-.346.636m32.455.371-.263.633.426.203.427.203.256-.673.256-.674-.387-.162a4.425 4.425 0 0 0-.42-.163c-.018 0-.151.285-.295.633m-14.31-.264-.302.232.29.598.29.598.427-.204.427-.203-.319-.63c-.176-.347-.362-.629-.415-.627-.052.001-.231.108-.398.236m-31.515.071c-.196.072-.357.205-.357.296 0 .127.311.912.472 1.191.013.023.205-.051.426-.166.399-.206.401-.212.214-.658-.323-.774-.36-.806-.755-.663m11.54 4.015c-.108.362-.175.68-.149.706.026.026.223.098.438.159.375.108.398.091.547-.407.085-.286.183-.591.216-.678.036-.093-.128-.216-.398-.299l-.458-.141-.196.66m32.214.108-.352.532.318.245c.175.134.354.246.398.247.1.004.765-.99.765-1.143 0-.096-.552-.414-.719-.414-.032 0-.216.24-.41.533m-41.806-.067-.36.195.399.579c.219.319.44.579.49.577.05-.001.221-.104.38-.227l.289-.225-.354-.552c-.195-.303-.383-.549-.419-.547-.036.002-.227.092-.425.2m31.356-.038c-.333.156-.334.161-.151.788.177.611.197.629.585.552.22-.045.426-.106.456-.136.08-.079-.365-1.373-.469-1.366-.048.003-.237.076-.421.162m7.77 3.576-.485.497.331.311.331.311.481-.481.481-.481-.327-.327-.327-.327-.485.497m-36.336.029c-.341.28-.28.496.292 1.03l.34.319.323-.323.323-.323-.489-.474c-.488-.473-.49-.474-.789-.229m5.778.831c-.082.693.013.85.517.854.218.002.293-.1.357-.486.14-.848.117-.91-.357-.965-.44-.051-.44-.051-.517.597m23.812-.092c-.341.052-.349.073-.275.728.042.371.093.695.114.72.021.025.217.005.437-.043.304-.067.399-.159.399-.386 0-.441-.15-1.114-.244-1.092a8.546 8.546 0 0 1-.431.073m3.47 2.132c-.539.411-.573.547-.233.925.189.209.236.198.762-.179l.56-.402-.277-.374a6.527 6.527 0 0 0-.284-.37c-.004.002-.242.182-.528.4m-29.763.145c-.283.405-.268.444.334.842l.535.354.245-.302c.134-.166.243-.339.241-.385-.003-.088-.966-.798-1.083-.798-.038 0-.16.13-.272.289M50.7 47.642c0 .226-.116.381-.39.523-.214.111-.39.221-.39.244 0 .023.064.225.142.448l.141.406.503-.256c.277-.141.594-.257.704-.257.156 0 .2-.158.2-.715v-.715h-.455c-.397 0-.455.041-.455.322m-23.757.024c-.101.041-.163.323-.163.744v.678l.455-.053.455-.053v-.701c0-.643-.024-.7-.292-.691a1.7 1.7 0 0 0-.455.076m1.334.691-.2.387.656.332.656.333.18-.427.181-.427-.542-.287c-.697-.368-.695-.368-.931.089m17.959 1.345c-.464.13-.493.166-.421.527.043.213.105.414.138.447.048.048 1.211-.214 1.335-.301.018-.012-.031-.208-.11-.434-.154-.442-.186-.45-.942-.239m-13.774.315c-.037.196-.045.394-.017.439.056.091 1.236.409 1.291.347.018-.021.073-.22.12-.443.084-.393.069-.41-.497-.553-.797-.201-.819-.196-.897.21m4.42.866c-.034.221-.04.425-.014.453.025.029.332.079.682.113l.636.061.067-.438c.036-.24.058-.444.049-.453a9.535 9.535 0 0 0-.688-.077c-.666-.061-.671-.059-.732.341m4.881-.349c-.367.046-.423.102-.423.427 0 .483.134.554.845.447.561-.084.585-.106.585-.528 0-.474.006-.472-1.007-.346m8.505 1.42c-.172.605-.224 1.066-.128 1.121.058.032.258.096.446.14.323.077.347.047.475-.599.075-.375.122-.695.105-.712-.016-.017-.21-.067-.43-.111-.319-.064-.414-.032-.468.161m-22.624.151c-.363.044-.369.057-.282.652.11.752.179.826.672.728l.393-.079-.141-.627c-.078-.345-.17-.648-.206-.674-.036-.025-.232-.025-.436 0m21.204 4.479c-.126.305-.228.591-.228.637 0 .082.801.402.845.337.012-.018.124-.294.249-.613.215-.552.215-.587-.004-.747-.399-.291-.626-.19-.862.386m-20.01-.146-.347.127.267.642c.146.354.321.643.388.643.1 0 .598-.222.723-.323.068-.054-.503-1.237-.593-1.227-.05.006-.247.068-.438.138m17.977 4.055-.391.568.375.278.376.278.249-.356c.549-.785.562-.875.156-1.115l-.374-.221-.391.568m-15.842-.085c-.371.258-.367.326.048.952l.34.515.367-.261.367-.261-.35-.578c-.192-.317-.379-.576-.415-.574-.036.001-.197.094-.357.207m13.095 3.619-.443.457.325.325.324.324.516-.528.515-.529-.325-.25c-.179-.138-.357-.252-.397-.253-.04-.002-.271.203-.515.454m-10.4 0-.311.331.481.481.481.481.327-.327.327-.327-.497-.485-.497-.485-.311.331m7.123 2.895c-.266.194-.486.39-.488.436-.002.046.107.219.242.386l.245.302.535-.371c.605-.419.61-.43.333-.826-.252-.36-.275-.358-.867.073m-3.832.155-.285.353.587.413.587.414.246-.296c.327-.392.324-.409-.166-.777-.644-.483-.663-.485-.969-.107" fill-rule="evenodd"/></svg>
