<svg xmlns="http://www.w3.org/2000/svg" viewBox="0 0 30 30"><path d="M13.825 0.048 C 11.556 0.253,9.451 0.898,7.620 1.949 C 4.005 4.025,1.445 7.392,0.455 11.375 C 0.137 12.655,0.029 13.571,0.029 15.000 C 0.029 16.429,0.137 17.345,0.455 18.625 C 1.683 23.565,5.395 27.594,10.200 29.203 C 11.811 29.743,13.247 29.973,15.000 29.973 C 18.059 29.973,20.766 29.158,23.309 27.471 C 28.576 23.977,31.072 17.534,29.545 11.375 C 28.648 7.760,26.411 4.587,23.309 2.529 C 21.306 1.200,19.301 0.453,16.850 0.123 C 16.174 0.032,14.467 -0.011,13.825 0.048 M18.610 8.103 C 19.179 8.295,19.552 8.633,19.820 9.198 C 19.960 9.492,19.975 9.572,19.975 10.000 C 19.975 10.428,19.960 10.508,19.820 10.802 C 19.552 11.367,19.179 11.705,18.610 11.897 C 18.014 12.097,17.316 11.982,16.809 11.598 L 16.554 11.405 14.240 12.830 C 12.043 14.183,11.926 14.262,11.941 14.390 C 11.950 14.464,11.961 14.739,11.966 15.000 C 11.974 15.422,11.960 15.507,11.840 15.762 L 11.706 16.049 11.915 16.169 C 12.031 16.235,13.056 16.790,14.194 17.401 C 16.074 18.412,16.268 18.505,16.315 18.422 C 16.452 18.177,16.792 17.884,17.142 17.712 C 17.499 17.535,17.546 17.525,18.000 17.525 C 18.454 17.525,18.501 17.535,18.858 17.712 C 19.313 17.936,19.598 18.228,19.812 18.685 C 20.536 20.231,19.036 21.914,17.393 21.401 C 16.592 21.151,16.001 20.348,15.999 19.507 L 15.999 19.225 13.594 17.932 L 11.190 16.639 10.933 16.764 C 10.390 17.029,9.912 17.069,9.383 16.895 C 8.339 16.552,7.764 15.422,8.105 14.383 C 8.475 13.256,9.751 12.690,10.808 13.185 C 10.985 13.268,11.208 13.404,11.303 13.487 L 11.476 13.639 13.775 12.221 C 15.040 11.441,16.091 10.797,16.111 10.789 C 16.132 10.781,16.115 10.665,16.074 10.530 C 15.970 10.186,15.982 9.757,16.105 9.383 C 16.447 8.342,17.587 7.759,18.610 8.103 " stroke="none" fill-rule="evenodd"></path></svg>