<svg xmlns="http://www.w3.org/2000/svg" viewBox="0 0 98 66"><path d="M28.257 1.077c-5.652.822-11.165 3.244-15.699 6.899-1.564 1.26-4.394 4.187-5.556 5.744C2.191 20.17-.13 28.429.66 36.284 2.2 51.589 13.948 63.597 29.232 65.489c1.781.22 5.746.22 7.522-.001 3.844-.478 7.311-1.515 10.735-3.211L49 61.529l1.511.748c4.672 2.315 9.249 3.383 14.496 3.383 3.856 0 6.668-.463 10.413-1.714 10.216-3.414 18.25-11.976 20.944-22.323 1.672-6.42 1.479-12.509-.591-18.739-1.549-4.659-3.909-8.534-7.407-12.16-2.647-2.745-5.023-4.546-8.209-6.225C75.298 1.938 70.652.814 64.96.82c-5.258.005-9.376.921-13.959 3.104L49 4.878l-2.001-.954c-3.143-1.497-6.054-2.374-9.514-2.868-2.063-.295-7.136-.283-9.228.021m8.497.891c3.533.437 7.094 1.495 10.085 2.995.995.499 1.856.983 1.913 1.075.194.315 1.034.195 1.148-.163.139-.439 2.462-1.598 4.858-2.424 3.331-1.149 6.463-1.654 10.249-1.654 7.047 0 13.261 2.065 18.946 6.296 8.444 6.284 13.203 16.775 12.407 27.35-.569 7.562-3.527 14.197-8.729 19.577-4.291 4.439-9.127 7.245-15.092 8.757-4.779 1.211-10.426 1.188-15.32-.063-3.17-.811-6.842-2.371-7.249-3.081-.284-.495-1.049-.656-1.203-.252-.114.296-3.285 1.81-5.209 2.485-3.368 1.183-5.892 1.647-9.585 1.761-9.114.283-17.241-3.024-23.604-9.607-4.626-4.785-7.421-10.419-8.495-17.127-.365-2.277-.371-6.968-.011-9.31.906-5.901 3.322-11.197 7.236-15.863C13.9 6.998 21.392 2.969 29.08 1.975c1.549-.201 6.078-.205 7.674-.007m8.753 5.434c-.412.33-.447.422-.28.734.235.439.471.444.98.02.354-.295.371-.366.177-.73-.264-.493-.29-.493-.877-.024m6.72.036c-.279.372-.274.388.242.792l.527.413.377-.355.377-.355-.374-.296c-.732-.58-.849-.6-1.149-.199m-9.978 2.66c-.436.455-.438.466-.126.748.241.219.391.247.629.119.588-.314.708-.583.436-.972-.322-.459-.407-.45-.939.105m13.208.07c-.246.35-.233.388.277.808.528.435.538.437.854.125.316-.312.315-.319-.154-.808-.565-.59-.643-.6-.977-.125m-16.075 2.994c-.428.544-.428.591.003.86.311.194.396.171.774-.207.342-.342.391-.481.247-.709-.279-.443-.647-.423-1.024.056m19.008.07c-.288.319-.286.341.097.776.217.246.407.471.421.501.015.03.215-.07.445-.22l.419-.275-.424-.555c-.494-.648-.562-.665-.958-.227m-21.313 3.302c-.403.661-.404.727-.011.937.483.258.582.214.87-.39.261-.547.258-.564-.133-.82-.388-.254-.41-.246-.726.273m23.869.103c-.373.287-.377.313-.118.813.287.556.432.61.923.347.312-.166.312-.178-.014-.816-.182-.356-.347-.646-.368-.644-.02.002-.211.137-.423.3M35.11 20.518c-.159.481-.153.617.028.732.441.279.731.142.944-.445.178-.494.177-.615-.008-.733-.459-.29-.768-.147-.964.446m27.647-.095c-.361.145-.364.166-.117.757.315.755.246.711.76.487.431-.187.433-.195.187-.801-.268-.661-.276-.665-.83-.443m-28.945 3.826c-.274.721-.205 1.022.255 1.11.333.064.451-.002.571-.318.194-.51.195-1.031.002-1.031-.082 0-.265-.044-.406-.098-.176-.068-.308.038-.422.337m30.135.248c-.191.309.103 1.31.384 1.307.546-.005.724-.261.608-.878-.09-.482-.182-.589-.502-.589-.215 0-.436.072-.49.16m-31.018 3.855c-.228.595-.105 1.04.317 1.146.511.128.501.139.641-.711.114-.687.11-.694-.372-.694-.293 0-.526.103-.586.259m32.037.181c-.298.077-.351.364-.183.99.073.273.219.367.569.367.502 0 .541-.101.369-.96-.1-.502-.185-.546-.755-.397m-32.463 4.46c0 .638.014.654.572.654.558 0 .572-.016.572-.654 0-.637-.014-.653-.572-.653-.558 0-.572.016-.572.653m32.504.409c0 .707.018.735.49.735s.49-.028.49-.735c0-.708-.018-.735-.49-.735s-.49.027-.49.735m-31.936 3.132c-.279.055-.32.167-.268.721.06.626.086.654.576.607.282-.028.494-.105.472-.173-.023-.067-.041-.38-.041-.694 0-.575-.04-.601-.739-.461m31.609 1.03c0 .56.057.664.416.754.508.128.494.143.625-.71l.106-.695h-.573c-.56 0-.574.016-.574.651m-30.625 3.075c-.513.099-.577.243-.397.895.153.554.208.599.609.502.243-.058.459-.119.48-.135.022-.016-.052-.321-.163-.677-.16-.514-.27-.635-.529-.585m29.824.948c-.129.468-.122.651.029.747.45.286.758.129.923-.471.193-.699.217-.645-.344-.786-.399-.1-.452-.056-.608.51m-28.803 3.116c-.348.091-.354.224-.046.962.221.528.271.559.613.381.204-.106.397-.215.428-.241.031-.026-.039-.31-.155-.631-.209-.577-.281-.618-.84-.471m27.433.826c-.235.585-.23.622.105.811.193.109.393.201.443.204.103.007.684-1.155.609-1.217-.104-.086-.766-.41-.836-.41-.041 0-.186.275-.321.612m-25.555 3.022c-.202.095-.367.237-.367.316 0 .115.317.695.598 1.094.025.035.232-.059.461-.209.431-.283.415-.451-.108-1.103-.171-.213-.294-.233-.584-.098m23.705.713c-.302.567-.302.58.013.811.41.303.524.257.923-.374l.328-.519-.478-.247c-.472-.244-.482-.241-.786.329m-21.432 2.85-.381.309.351.493c.402.564.66.616 1.024.208.234-.262.219-.329-.178-.802-.433-.515-.436-.516-.816-.208m19.101.501-.391.494.362.355.361.354.47-.555.469-.555-.384-.302c-.212-.167-.41-.299-.441-.294-.031.005-.231.232-.446.503M41.922 55.34c-.251.278-.234.33.286.834l.555.537.293-.447c.292-.445.291-.449-.189-.833-.58-.464-.605-.467-.945-.091m13.617.269c-.367.39-.369.415-.093.837l.285.435.504-.504c.494-.494.498-.511.203-.837-.383-.423-.441-.419-.899.069m-10.38 2.54c-.288.319-.288.337.016.575.714.559.901.607 1.138.293.316-.416.299-.477-.237-.859-.579-.413-.551-.412-.917-.009m7.315.034c-.615.433-.613.423-.242.906l.285.37.545-.455c.539-.45.541-.458.242-.823l-.302-.369-.528.371" fill-rule="evenodd"/></svg>
