<svg fill="none" xmlns="http://www.w3.org/2000/svg" viewBox="0 0 16 16"><path d="M8.507 2.840 L 8.507 3.253 10.270 3.260 L 12.033 3.267 10.397 4.868 C 9.496 5.749,8.636 6.589,8.485 6.735 L 8.210 7.000 8.499 7.287 L 8.787 7.573 10.667 5.736 L 12.547 3.898 12.554 5.589 L 12.560 7.280 12.960 7.280 L 13.360 7.280 13.360 4.853 L 13.360 2.427 10.933 2.427 L 8.507 2.427 8.507 2.840 M5.133 10.041 L 3.267 11.867 3.260 10.187 L 3.253 8.507 2.840 8.507 L 2.427 8.507 2.427 10.933 L 2.427 13.360 4.853 13.360 L 7.280 13.360 7.280 12.960 L 7.280 12.560 5.505 12.554 L 3.730 12.547 5.653 10.668 L 7.575 8.789 7.288 8.501 C 7.130 8.343,7.001 8.214,7.000 8.214 C 7.000 8.215,6.160 9.037,5.133 10.041 " fill="#6D6A5F" stroke="none" fill-rule="evenodd"></path></svg>